<svg xmlns="http://www.w3.org/2000/svg" xmlns:xlink="http://www.w3.org/1999/xlink" width="382" zoomAndPan="magnify" viewBox="0 0 286.5 123.000003" height="164" preserveAspectRatio="xMidYMid meet" version="1.0"><defs><g/><clipPath id="5b8b123dd3"><path d="M 1 27 L 45 27 L 45 86 L 1 86 Z M 1 27 " clip-rule="nonzero"/></clipPath><clipPath id="04f4a0f4d7"><path d="M 0.90625 31.417969 L 37.746094 26.519531 L 45.09375 81.773438 L 8.257812 86.671875 Z M 0.90625 31.417969 " clip-rule="nonzero"/></clipPath><clipPath id="641d1f48dc"><path d="M 7.542969 30.535156 L 31.105469 27.402344 C 34.773438 26.914062 38.140625 29.488281 38.628906 33.15625 L 44.207031 75.082031 C 44.691406 78.75 42.117188 82.117188 38.449219 82.605469 L 14.890625 85.738281 C 11.222656 86.226562 7.855469 83.648438 7.367188 79.984375 L 1.789062 38.054688 C 1.304688 34.390625 3.878906 31.023438 7.542969 30.535156 Z M 7.542969 30.535156 " clip-rule="nonzero"/></clipPath><clipPath id="6d56fc340e"><path d="M 0.144531 0 L 43.710938 0 L 43.710938 59 L 0.144531 59 Z M 0.144531 0 " clip-rule="nonzero"/></clipPath><clipPath id="c057d2308a"><path d="M -0.09375 4.417969 L 36.746094 -0.480469 L 44.09375 54.773438 L 7.257812 59.671875 Z M -0.09375 4.417969 " clip-rule="nonzero"/></clipPath><clipPath id="f276021207"><path d="M 6.542969 3.535156 L 30.105469 0.402344 C 33.773438 -0.0859375 37.140625 2.488281 37.628906 6.15625 L 43.207031 48.082031 C 43.691406 51.75 41.117188 55.117188 37.449219 55.605469 L 13.890625 58.738281 C 10.222656 59.226562 6.855469 56.648438 6.367188 52.984375 L 0.789062 11.054688 C 0.304688 7.390625 2.878906 4.023438 6.542969 3.535156 Z M 6.542969 3.535156 " clip-rule="nonzero"/></clipPath><clipPath id="6f7affde3f"><rect x="0" width="44" y="0" height="59"/></clipPath><clipPath id="3e1003b261"><path d="M 7.925781 30.886719 L 45.085938 30.886719 L 45.085938 86.628906 L 7.925781 86.628906 Z M 7.925781 30.886719 " clip-rule="nonzero"/></clipPath><clipPath id="0b5e87a2f8"><path d="M 14.621094 30.886719 L 38.390625 30.886719 C 42.089844 30.886719 45.085938 33.882812 45.085938 37.582031 L 45.085938 79.878906 C 45.085938 83.578125 42.089844 86.574219 38.390625 86.574219 L 14.621094 86.574219 C 10.925781 86.574219 7.925781 83.578125 7.925781 79.878906 L 7.925781 37.582031 C 7.925781 33.882812 10.925781 30.886719 14.621094 30.886719 Z M 14.621094 30.886719 " clip-rule="nonzero"/></clipPath><clipPath id="716ff6bbc4"><path d="M 0.925781 0.886719 L 38.085938 0.886719 L 38.085938 56.628906 L 0.925781 56.628906 Z M 0.925781 0.886719 " clip-rule="nonzero"/></clipPath><clipPath id="6dea87ab7f"><path d="M 7.621094 0.886719 L 31.390625 0.886719 C 35.089844 0.886719 38.085938 3.882812 38.085938 7.582031 L 38.085938 49.878906 C 38.085938 53.578125 35.089844 56.574219 31.390625 56.574219 L 7.621094 56.574219 C 3.925781 56.574219 0.925781 53.578125 0.925781 49.878906 L 0.925781 7.582031 C 0.925781 3.882812 3.925781 0.886719 7.621094 0.886719 Z M 7.621094 0.886719 " clip-rule="nonzero"/></clipPath><clipPath id="f64cead488"><rect x="0" width="39" y="0" height="57"/></clipPath><clipPath id="15a3091222"><path d="M 35.011719 57.691406 L 40.984375 57.691406 L 40.984375 63.664062 L 35.011719 63.664062 Z M 35.011719 57.691406 " clip-rule="nonzero"/></clipPath><clipPath id="533ba963e5"><path d="M 38 57.691406 C 36.347656 57.691406 35.011719 59.027344 35.011719 60.679688 C 35.011719 62.328125 36.347656 63.664062 38 63.664062 C 39.648438 63.664062 40.984375 62.328125 40.984375 60.679688 C 40.984375 59.027344 39.648438 57.691406 38 57.691406 Z M 38 57.691406 " clip-rule="nonzero"/></clipPath><clipPath id="fc60bce7aa"><path d="M 0.0117188 0.691406 L 5.984375 0.691406 L 5.984375 6.664062 L 0.0117188 6.664062 Z M 0.0117188 0.691406 " clip-rule="nonzero"/></clipPath><clipPath id="2e3bf85427"><path d="M 3 0.691406 C 1.347656 0.691406 0.0117188 2.027344 0.0117188 3.679688 C 0.0117188 5.328125 1.347656 6.664062 3 6.664062 C 4.648438 6.664062 5.984375 5.328125 5.984375 3.679688 C 5.984375 2.027344 4.648438 0.691406 3 0.691406 Z M 3 0.691406 " clip-rule="nonzero"/></clipPath><clipPath id="a32621a877"><rect x="0" width="6" y="0" height="7"/></clipPath><clipPath id="0d9824505f"><path d="M 28.09375 57.691406 L 39.867188 57.691406 L 39.867188 60.441406 L 28.09375 60.441406 Z M 28.09375 57.691406 " clip-rule="nonzero"/></clipPath><clipPath id="0da1b1d9bf"><path d="M 29.46875 57.691406 L 38.492188 57.691406 C 38.855469 57.691406 39.207031 57.835938 39.464844 58.09375 C 39.722656 58.351562 39.867188 58.703125 39.867188 59.066406 C 39.867188 59.433594 39.722656 59.78125 39.464844 60.039062 C 39.207031 60.296875 38.855469 60.441406 38.492188 60.441406 L 29.46875 60.441406 C 29.101562 60.441406 28.753906 60.296875 28.496094 60.039062 C 28.238281 59.78125 28.09375 59.433594 28.09375 59.066406 C 28.09375 58.703125 28.238281 58.351562 28.496094 58.09375 C 28.753906 57.835938 29.101562 57.691406 29.46875 57.691406 Z M 29.46875 57.691406 " clip-rule="nonzero"/></clipPath><clipPath id="9453d3180d"><path d="M 0.09375 0.691406 L 11.867188 0.691406 L 11.867188 3.441406 L 0.09375 3.441406 Z M 0.09375 0.691406 " clip-rule="nonzero"/></clipPath><clipPath id="59aea3a0b4"><path d="M 1.46875 0.691406 L 10.492188 0.691406 C 10.855469 0.691406 11.207031 0.835938 11.464844 1.09375 C 11.722656 1.351562 11.867188 1.703125 11.867188 2.066406 C 11.867188 2.433594 11.722656 2.78125 11.464844 3.039062 C 11.207031 3.296875 10.855469 3.441406 10.492188 3.441406 L 1.46875 3.441406 C 1.101562 3.441406 0.753906 3.296875 0.496094 3.039062 C 0.238281 2.78125 0.09375 2.433594 0.09375 2.066406 C 0.09375 1.703125 0.238281 1.351562 0.496094 1.09375 C 0.753906 0.835938 1.101562 0.691406 1.46875 0.691406 Z M 1.46875 0.691406 " clip-rule="nonzero"/></clipPath><clipPath id="546e69d518"><rect x="0" width="12" y="0" height="4"/></clipPath></defs><g clip-path="url(#5b8b123dd3)"><g clip-path="url(#04f4a0f4d7)"><g clip-path="url(#641d1f48dc)"><g transform="matrix(1, 0, 0, 1, 1, 27)"><g clip-path="url(#6f7affde3f)"><g clip-path="url(#6d56fc340e)"><g clip-path="url(#c057d2308a)"><g clip-path="url(#f276021207)"><path fill="#c9ddff" d="M -0.09375 4.417969 L 36.746094 -0.480469 L 44.09375 54.773438 L 7.257812 59.671875 Z M -0.09375 4.417969 " fill-opacity="1" fill-rule="nonzero"/></g></g></g></g></g></g></g></g><g clip-path="url(#3e1003b261)"><g clip-path="url(#0b5e87a2f8)"><g transform="matrix(1, 0, 0, 1, 7, 30)"><g clip-path="url(#f64cead488)"><g clip-path="url(#716ff6bbc4)"><g clip-path="url(#6dea87ab7f)"><path fill="#4176ed" d="M 0.925781 0.886719 L 38.085938 0.886719 L 38.085938 56.628906 L 0.925781 56.628906 Z M 0.925781 0.886719 " fill-opacity="1" fill-rule="nonzero"/></g></g></g></g></g></g><g clip-path="url(#15a3091222)"><g clip-path="url(#533ba963e5)"><g transform="matrix(1, 0, 0, 1, 35, 57)"><g clip-path="url(#a32621a877)"><g clip-path="url(#fc60bce7aa)"><g clip-path="url(#2e3bf85427)"><path fill="#c9ddff" d="M 0.0117188 0.691406 L 5.984375 0.691406 L 5.984375 6.664062 L 0.0117188 6.664062 Z M 0.0117188 0.691406 " fill-opacity="1" fill-rule="nonzero"/></g></g></g></g></g></g><g clip-path="url(#0d9824505f)"><g clip-path="url(#0da1b1d9bf)"><g transform="matrix(1, 0, 0, 1, 28, 57)"><g clip-path="url(#546e69d518)"><g clip-path="url(#9453d3180d)"><g clip-path="url(#59aea3a0b4)"><path fill="#c9ddff" d="M 0.09375 0.691406 L 11.867188 0.691406 L 11.867188 3.441406 L 0.09375 3.441406 Z M 0.09375 0.691406 " fill-opacity="1" fill-rule="nonzero"/></g></g></g></g></g></g><g fill="#000000" fill-opacity="1"><g transform="translate(69.399272, 77.41724)"><g><path d="M 41.15625 -33.4375 C 41.15625 -30.320312 40.597656 -27.722656 39.484375 -25.640625 C 38.378906 -23.554688 36.867188 -21.898438 34.953125 -20.671875 C 33.046875 -19.453125 30.914062 -18.585938 28.5625 -18.078125 C 26.21875 -17.566406 23.800781 -17.3125 21.3125 -17.3125 C 20.507812 -17.3125 19.617188 -17.332031 18.640625 -17.375 C 17.671875 -17.425781 16.765625 -17.472656 15.921875 -17.515625 L 15.921875 -1.328125 C 15.921875 -0.972656 15.785156 -0.660156 15.515625 -0.390625 C 15.242188 -0.128906 14.929688 0 14.578125 0 L 6 0 C 5.632812 0 5.316406 -0.117188 5.046875 -0.359375 C 4.785156 -0.609375 4.65625 -0.910156 4.65625 -1.265625 L 4.65625 -46.015625 C 4.65625 -47.171875 4.898438 -47.945312 5.390625 -48.34375 C 5.878906 -48.75 6.632812 -49.039062 7.65625 -49.21875 C 9.34375 -49.476562 11.414062 -49.6875 13.875 -49.84375 C 16.34375 -50 18.773438 -50.078125 21.171875 -50.078125 C 23.703125 -50.078125 26.15625 -49.820312 28.53125 -49.3125 C 30.90625 -48.800781 33.035156 -47.945312 34.921875 -46.75 C 36.816406 -45.550781 38.328125 -43.914062 39.453125 -41.84375 C 40.585938 -39.78125 41.15625 -37.175781 41.15625 -34.03125 Z M 29.828125 -33.4375 L 29.828125 -34.03125 C 29.828125 -36.382812 29.101562 -38.070312 27.65625 -39.09375 C 26.21875 -40.113281 24.101562 -40.625 21.3125 -40.625 C 21 -40.625 20.460938 -40.613281 19.703125 -40.59375 C 18.953125 -40.570312 18.195312 -40.546875 17.4375 -40.515625 C 16.6875 -40.492188 16.179688 -40.460938 15.921875 -40.421875 L 15.921875 -26.84375 C 16.179688 -26.84375 16.695312 -26.828125 17.46875 -26.796875 C 18.25 -26.773438 19.03125 -26.753906 19.8125 -26.734375 C 20.59375 -26.710938 21.09375 -26.703125 21.3125 -26.703125 C 24.28125 -26.703125 26.441406 -27.253906 27.796875 -28.359375 C 29.148438 -29.472656 29.828125 -31.164062 29.828125 -33.4375 Z M 29.828125 -33.4375 "/></g></g></g><g fill="#000000" fill-opacity="1"><g transform="translate(108.09084, 77.41724)"><g><path d="M 33.4375 -1.328125 C 33.4375 -0.972656 33.300781 -0.660156 33.03125 -0.390625 C 32.757812 -0.128906 32.445312 0 32.09375 0 L 24.640625 0 C 24.285156 0 23.972656 -0.128906 23.703125 -0.390625 C 23.441406 -0.660156 23.3125 -0.972656 23.3125 -1.328125 L 23.3125 -2.390625 C 22.019531 -1.460938 20.648438 -0.734375 19.203125 -0.203125 C 17.765625 0.328125 16.046875 0.59375 14.046875 0.59375 C 12.140625 0.59375 10.304688 0.238281 8.546875 -0.46875 C 6.796875 -1.175781 5.375 -2.363281 4.28125 -4.03125 C 3.195312 -5.695312 2.65625 -7.972656 2.65625 -10.859375 L 2.65625 -11.453125 C 2.65625 -15.359375 3.960938 -18.207031 6.578125 -20 C 9.203125 -21.800781 13.359375 -22.703125 19.046875 -22.703125 L 22.640625 -22.703125 L 22.640625 -25.109375 C 22.640625 -27.015625 22.195312 -28.253906 21.3125 -28.828125 C 20.425781 -29.410156 19.203125 -29.703125 17.640625 -29.703125 C 15.515625 -29.703125 13.394531 -29.644531 11.28125 -29.53125 C 9.175781 -29.425781 7.613281 -29.328125 6.59375 -29.234375 L 6.265625 -29.234375 C 5.460938 -29.234375 5.0625 -29.632812 5.0625 -30.4375 L 5.0625 -35.828125 C 5.0625 -36.578125 5.484375 -37.066406 6.328125 -37.296875 C 7.566406 -37.609375 9.25 -37.914062 11.375 -38.21875 C 13.507812 -38.53125 15.664062 -38.6875 17.84375 -38.6875 C 22.644531 -38.6875 26.441406 -37.644531 29.234375 -35.5625 C 32.035156 -33.476562 33.4375 -29.992188 33.4375 -25.109375 Z M 22.84375 -8.984375 L 22.84375 -16.3125 L 19.046875 -16.3125 C 16.734375 -16.3125 15.175781 -15.910156 14.375 -15.109375 C 13.582031 -14.316406 13.1875 -13.097656 13.1875 -11.453125 L 13.1875 -10.859375 C 13.1875 -9.484375 13.539062 -8.582031 14.25 -8.15625 C 14.957031 -7.738281 16 -7.53125 17.375 -7.53125 C 18.394531 -7.53125 19.359375 -7.671875 20.265625 -7.953125 C 21.179688 -8.242188 22.039062 -8.585938 22.84375 -8.984375 Z M 22.84375 -8.984375 "/></g></g></g><g fill="#000000" fill-opacity="1"><g transform="translate(140.855417, 77.41724)"><g><path d="M 36.765625 -1.40625 C 36.765625 -1.039062 36.617188 -0.710938 36.328125 -0.421875 C 36.035156 -0.140625 35.710938 0 35.359375 0 L 27.296875 0 C 26.941406 0 26.628906 -0.140625 26.359375 -0.421875 C 26.097656 -0.710938 25.96875 -1.039062 25.96875 -1.40625 L 25.96875 -23.578125 C 25.96875 -25.929688 25.65625 -27.550781 25.03125 -28.4375 C 24.414062 -29.320312 23.085938 -29.765625 21.046875 -29.765625 C 20.066406 -29.765625 19.066406 -29.5625 18.046875 -29.15625 C 17.023438 -28.757812 15.9375 -28.253906 14.78125 -27.640625 L 14.78125 -1.40625 C 14.78125 -1.039062 14.644531 -0.710938 14.375 -0.421875 C 14.113281 -0.140625 13.804688 0 13.453125 0 L 5.390625 0 C 5.035156 0 4.710938 -0.140625 4.421875 -0.421875 C 4.140625 -0.710938 4 -1.039062 4 -1.40625 L 4 -36.828125 C 4 -37.179688 4.128906 -37.488281 4.390625 -37.75 C 4.660156 -38.019531 4.972656 -38.15625 5.328125 -38.15625 L 12.78125 -38.15625 C 13.132812 -38.15625 13.445312 -38.019531 13.71875 -37.75 C 13.988281 -37.488281 14.125 -37.179688 14.125 -36.828125 L 14.125 -35.234375 C 15.9375 -36.515625 17.664062 -37.410156 19.3125 -37.921875 C 20.957031 -38.429688 22.84375 -38.6875 24.96875 -38.6875 C 28.207031 -38.6875 30.671875 -38.007812 32.359375 -36.65625 C 34.046875 -35.300781 35.203125 -33.476562 35.828125 -31.1875 C 36.453125 -28.90625 36.765625 -26.367188 36.765625 -23.578125 Z M 36.765625 -1.40625 "/></g></g></g><g fill="#000000" fill-opacity="1"><g transform="translate(176.949761, 77.41724)"><g><path d="M 25.96875 -1.265625 C 25.96875 -0.515625 25.546875 -0.0703125 24.703125 0.0625 C 23.722656 0.238281 22.84375 0.367188 22.0625 0.453125 C 21.289062 0.546875 20.421875 0.59375 19.453125 0.59375 C 17.003906 0.59375 14.945312 0.304688 13.28125 -0.265625 C 11.613281 -0.835938 10.359375 -1.945312 9.515625 -3.59375 C 8.671875 -5.238281 8.25 -7.632812 8.25 -10.78125 L 8.25 -30.09375 L 2.9375 -30.96875 C 2.570312 -31.050781 2.242188 -31.210938 1.953125 -31.453125 C 1.671875 -31.703125 1.53125 -32.003906 1.53125 -32.359375 L 1.53125 -36.765625 C 1.53125 -37.117188 1.671875 -37.4375 1.953125 -37.71875 C 2.242188 -38.007812 2.570312 -38.15625 2.9375 -38.15625 L 8.25 -38.15625 L 8.25 -43.625 C 8.25 -43.976562 8.382812 -44.273438 8.65625 -44.515625 C 8.925781 -44.765625 9.238281 -44.910156 9.59375 -44.953125 L 17.71875 -46.34375 C 17.757812 -46.34375 17.789062 -46.34375 17.8125 -46.34375 C 17.832031 -46.34375 17.863281 -46.34375 17.90625 -46.34375 C 18.707031 -46.34375 19.109375 -45.96875 19.109375 -45.21875 L 19.109375 -38.15625 L 24.578125 -38.15625 C 24.929688 -38.15625 25.238281 -38.019531 25.5 -37.75 C 25.769531 -37.488281 25.90625 -37.179688 25.90625 -36.828125 L 25.90625 -31.4375 C 25.90625 -31.082031 25.769531 -30.769531 25.5 -30.5 C 25.238281 -30.226562 24.929688 -30.09375 24.578125 -30.09375 L 19.109375 -30.09375 L 19.109375 -10.71875 C 19.109375 -9.382812 19.226562 -8.53125 19.46875 -8.15625 C 19.71875 -7.78125 20.332031 -7.59375 21.3125 -7.59375 L 24.578125 -7.59375 C 25.503906 -7.59375 25.96875 -7.210938 25.96875 -6.453125 Z M 25.96875 -1.265625 "/></g></g></g><g fill="#000000" fill-opacity="1"><g transform="translate(200.324401, 77.41724)"><g><path d="M 36.296875 -16.71875 C 36.296875 -11.4375 34.875 -7.226562 32.03125 -4.09375 C 29.1875 -0.96875 25.054688 0.59375 19.640625 0.59375 C 14.273438 0.59375 10.148438 -0.96875 7.265625 -4.09375 C 4.378906 -7.226562 2.9375 -11.4375 2.9375 -16.71875 L 2.9375 -21.375 C 2.9375 -26.65625 4.378906 -30.859375 7.265625 -33.984375 C 10.148438 -37.117188 14.273438 -38.6875 19.640625 -38.6875 C 25.054688 -38.6875 29.1875 -37.117188 32.03125 -33.984375 C 34.875 -30.859375 36.296875 -26.65625 36.296875 -21.375 Z M 25.578125 -16.71875 L 25.578125 -21.375 C 25.578125 -26.789062 23.597656 -29.5 19.640625 -29.5 C 15.648438 -29.5 13.65625 -26.789062 13.65625 -21.375 L 13.65625 -16.71875 C 13.65625 -11.257812 15.648438 -8.53125 19.640625 -8.53125 C 23.597656 -8.53125 25.578125 -11.257812 25.578125 -16.71875 Z M 25.578125 -16.71875 "/></g></g></g></svg>